<svg width="448" height="213" viewBox="0 0 448 213" fill="none" xmlns="http://www.w3.org/2000/svg">
    <path d="M247.77 41H216.228H16L46.0193 66.3035L16 91.607H216.228H247.77H448L417.98 66.3035L448 41H247.77Z" fill="#282828"/>
    <path d="M127.531 76L126.241 71.2H119.371L118.081 76H113.971L120.421 55.27H125.311L131.731 76H127.531ZM120.151 68.2H125.431L122.791 58.3L120.151 68.2ZM145.867 55.27L145.447 58.42H140.047V76H136.057V58.42H130.477V55.27H145.867ZM161.925 54.82C163.385 54.82 164.655 55.03 165.735 55.45C166.815 55.87 167.825 56.51 168.765 57.37L166.815 59.62C166.075 59 165.325 58.55 164.565 58.27C163.825 57.99 163.025 57.85 162.165 57.85C161.205 57.85 160.425 58.07 159.825 58.51C159.245 58.93 158.955 59.53 158.955 60.31C158.955 60.83 159.065 61.26 159.285 61.6C159.525 61.94 159.945 62.26 160.545 62.56C161.145 62.86 162.035 63.19 163.215 63.55C165.255 64.19 166.785 64.99 167.805 65.95C168.845 66.89 169.365 68.27 169.365 70.09C169.365 71.33 169.045 72.43 168.405 73.39C167.785 74.35 166.885 75.1 165.705 75.64C164.525 76.18 163.125 76.45 161.505 76.45C159.925 76.45 158.505 76.2 157.245 75.7C156.005 75.18 154.935 74.48 154.035 73.6L156.075 71.32C156.875 72 157.705 72.52 158.565 72.88C159.425 73.22 160.375 73.39 161.415 73.39C162.555 73.39 163.475 73.12 164.175 72.58C164.875 72.04 165.225 71.28 165.225 70.3C165.225 69.7 165.105 69.21 164.865 68.83C164.625 68.43 164.215 68.08 163.635 67.78C163.055 67.46 162.215 67.13 161.115 66.79C158.915 66.11 157.325 65.29 156.345 64.33C155.365 63.37 154.875 62.11 154.875 60.55C154.875 59.41 155.175 58.41 155.775 57.55C156.375 56.69 157.205 56.02 158.265 55.54C159.345 55.06 160.565 54.82 161.925 54.82ZM185.418 55.27L184.998 58.42H179.598V76H175.608V58.42H170.028V55.27H185.418ZM197.492 76L196.202 71.2H189.332L188.042 76H183.932L190.382 55.27H195.272L201.692 76H197.492ZM190.112 68.2H195.392L192.752 58.3L190.112 68.2ZM207.962 55.27V76H204.002V55.27H207.962ZM219.602 55.27L212.432 64.66L220.172 76H215.462L208.142 64.93L215.312 55.27H219.602ZM234.431 55.27L234.011 58.21H226.361V64H233.021V66.94H226.361V73.03H234.551V76H222.401V55.27H234.431Z" fill="#FAD450"/>
    <path d="M240.955 69.92C241.755 69.92 242.422 70.1867 242.955 70.72C243.489 71.2533 243.755 71.9067 243.755 72.68C243.755 73.4533 243.489 74.12 242.955 74.68C242.422 75.2133 241.755 75.48 240.955 75.48C240.182 75.48 239.529 75.2133 238.995 74.68C238.462 74.12 238.195 73.4533 238.195 72.68C238.195 71.9067 238.462 71.2533 238.995 70.72C239.529 70.1867 240.182 69.92 240.955 69.92ZM240.955 55.2C241.755 55.2 242.422 55.4667 242.955 56C243.489 56.5333 243.755 57.1867 243.755 57.96C243.755 58.7333 243.489 59.4 242.955 59.96C242.422 60.4933 241.755 60.76 240.955 60.76C240.182 60.76 239.529 60.4933 238.995 59.96C238.462 59.4 238.195 58.7333 238.195 57.96C238.195 57.1867 238.462 56.5333 238.995 56C239.529 55.4667 240.182 55.2 240.955 55.2Z" fill="#FAD450"/>
    <path d="M220.229 141L217.361 144.742L241.922 177L217.361 209.258L220.229 213L247.639 177L220.229 141Z" fill="#8E8E8E"/>
</svg>
