<svg width="117" height="117" viewBox="0 0 117 117" fill="none" xmlns="http://www.w3.org/2000/svg">
<path d="M58.5 117C90.8087 117 117 90.8087 117 58.5C117 26.1913 90.8087 0 58.5 0C26.1913 0 0 26.1913 0 58.5C0 90.8087 26.1913 117 58.5 117Z" fill="#0477A9"/>
<path d="M63 59.5C63 63.075 61.2 66 59 66C56.8 66 55 63.075 55 59.5V33.5C55 29.925 56.8 27 59 27C61.2 27 63 29.925 63 33.5V59.5Z" fill="white"/>
<path d="M64.1562 82.0781C64.1562 84.8711 61.8711 87.1562 59.0781 87.1562C56.2852 87.1562 54 84.8711 54 82.0781C54 79.2852 56.2852 77 59.0781 77C61.8711 77 64.1562 79.2852 64.1562 82.0781Z" fill="white"/>
</svg>
