<?xml version="1.0" ?><svg style="enable-background:new 0 0 16 16;" version="1.1" viewBox="0 0 16 16" xml:space="preserve" xmlns="http://www.w3.org/2000/svg" xmlns:xlink="http://www.w3.org/1999/xlink"><style type="text/css">
	.st0{display:none;}
	.st1{display:inline;fill:none;stroke:#000000;stroke-linecap:round;stroke-linejoin:round;stroke-miterlimit:10;}
	.st2{display:inline;}
	.st3{fill:#F9C00C;}
	.st4{fill:#3E3643;}
	.st5{fill:#5F5566;}
	.st6{fill:#03E6B1;}
	.st7{fill:#05C190;}
	.st8{fill:#3BB3E3;}
	.st9{fill:#27A7C4;}
	.st10{fill:#4FC6F5;}
	.st11{fill:#36B6DD;}
	.st12{fill:#FFDF00;}
	.st13{fill:#F0F0F0;}
	.st14{fill:#FFAA00;}
	.st15{fill:#CFD3D4;}
	.st16{fill:#D32F2F;}
	.st17{display:inline;fill:#D32F2F;}
	.st18{fill:#1689FC;}
	.st19{fill:#3E5959;}
	.st20{fill:#00ECCE;}
	.st21{fill:#01A28E;}
</style><g class="st0" id="grid"/><g class="st0" id="line"><polygon class="st1" points="0.5,10.5 0.5,8 8,0.5 15.5,8 15.5,10.5 8,3  "/><polyline class="st1" points="8,8 0.5,15.5 0.5,13 8,5.5 15.5,13 15.5,15.5 9.3,9.3  "/></g><g class="st0" id="line_expanded"><path class="st2" d="M15.9,7.6L8.4,0.1C8.2,0,7.8,0,7.6,0.1L0.1,7.6C0.1,7.7,0,7.9,0,8v2.5c0,0.2,0.1,0.4,0.3,0.5   c0.2,0.1,0.4,0,0.5-0.1L8,3.7l7.1,7.1c0.1,0.1,0.2,0.1,0.4,0.1c0.1,0,0.1,0,0.2,0c0.2-0.1,0.3-0.3,0.3-0.5V8   C16,7.9,15.9,7.7,15.9,7.6z M15,9.3L8.4,2.6C8.3,2.5,8.1,2.5,8,2.5s-0.3,0-0.4,0.1L1,9.3V8.2l7-7l7,7V9.3z"/><path class="st2" d="M8.4,5.1C8.2,5,7.8,5,7.6,5.1l-7.5,7.5C0.1,12.7,0,12.9,0,13v2.5c0,0.2,0.1,0.4,0.3,0.5c0.2,0.1,0.4,0,0.5-0.1   l7.5-7.5c0.2-0.2,0.2-0.5,0-0.7s-0.5-0.2-0.7,0L1,14.3v-1.1l7-7l7,7v1.1L9.6,8.9c-0.2-0.2-0.5-0.2-0.7,0s-0.2,0.5,0,0.7l6.3,6.3   c0.1,0.1,0.2,0.1,0.4,0.1c0.1,0,0.1,0,0.2,0c0.2-0.1,0.3-0.3,0.3-0.5V13c0-0.1-0.1-0.3-0.1-0.4L8.4,5.1z"/></g><g class="st0" id="filled_line"><g class="st2"><polygon class="st3" points="8,0.5 2,6.5 2,9 8,3 15.5,10.5 15.5,8   "/><polygon class="st3" points="8,5.5 2,11.5 2,14 8,8 15.5,15.5 15.5,13   "/><g><path class="st4" d="M15.5,11c-0.1,0-0.3-0.1-0.4-0.1L8,3.7l-7.1,7.1C0.7,11,0.5,11,0.3,11C0.1,10.9,0,10.7,0,10.5V8     c0-0.1,0.1-0.3,0.1-0.4l7.5-7.5C7.8,0,8.2,0,8.4,0.1l7.5,7.5C15.9,7.7,16,7.9,16,8v2.5c0,0.2-0.1,0.4-0.3,0.5     C15.6,11,15.6,11,15.5,11z M8,2.5c0.1,0,0.3,0,0.4,0.1L15,9.3V8.2l-7-7l-7,7v1.1l6.6-6.6C7.7,2.5,7.9,2.5,8,2.5z"/></g><g><path class="st4" d="M15.5,16c-0.1,0-0.3-0.1-0.4-0.1L8.9,9.6c-0.2-0.2-0.2-0.5,0-0.7s0.5-0.2,0.7,0l5.4,5.4v-1.1l-7-7l-7,7v1.1     l6.6-6.6c0.2-0.2,0.5-0.2,0.7,0s0.2,0.5,0,0.7l-7.5,7.5C0.7,16,0.5,16,0.3,16C0.1,15.9,0,15.7,0,15.5V13c0-0.1,0.1-0.3,0.1-0.4     l7.5-7.5C7.8,5,8.2,5,8.4,5.1l7.5,7.5c0.1,0.1,0.1,0.2,0.1,0.4v2.5c0,0.2-0.1,0.4-0.3,0.5C15.6,16,15.6,16,15.5,16z"/></g></g></g><g class="st0" id="flat"><g class="st2"><g><path class="st8" d="M15.8,7.6L8.3,0.1C8.3,0,8.1,0,8,0v3.7l7.2,7.1c0.1,0.1,0.2,0.2,0.3,0.2c0.1,0,0.1,0,0.2,0     c0.2-0.1,0.3-0.3,0.3-0.5V8C16,7.9,16,7.7,15.8,7.6z"/></g><g><path class="st9" d="M15.8,12.6L8.3,5.1C8.3,5,8.1,5,8,5v3.7l7.2,7.1c0.1,0.1,0.2,0.2,0.3,0.2c0.1,0,0.1,0,0.2,0     c0.2-0.1,0.3-0.3,0.3-0.5V13C16,12.9,16,12.7,15.8,12.6z"/></g><g><path class="st10" d="M7.7,0.1L0.2,7.6C0,7.7,0,7.9,0,8v2.5c0,0.2,0.1,0.4,0.3,0.5c0.2,0.1,0.4,0,0.5-0.1L8,3.7V0     C7.9,0,7.7,0,7.7,0.1z"/></g><g><path class="st11" d="M7.7,5.1l-7.5,7.5C0,12.7,0,12.9,0,13v2.5c0,0.2,0.1,0.4,0.3,0.5c0.2,0.1,0.4,0,0.5-0.1L8,8.7V5     C7.9,5,7.7,5,7.7,5.1z"/></g></g></g><g id="colored_line"><g><path class="st18" d="M15.9,7.6L8.4,0.1C8.2,0,7.8,0,7.6,0.1L0.1,7.6C0.1,7.7,0,7.9,0,8v2.5c0,0.2,0.1,0.4,0.3,0.5    c0.2,0.1,0.4,0,0.5-0.1L8,3.7l7.1,7.1c0.1,0.1,0.2,0.1,0.4,0.1c0.1,0,0.1,0,0.2,0c0.2-0.1,0.3-0.3,0.3-0.5V8    C16,7.9,15.9,7.7,15.9,7.6z M15,9.3L8.4,2.6C8.3,2.5,8.1,2.5,8,2.5s-0.3,0-0.4,0.1L1,9.3V8.2l7-7l7,7V9.3z"/><path class="st19" d="M8.4,5.1C8.2,5,7.8,5,7.6,5.1l-7.5,7.5C0.1,12.7,0,12.9,0,13v2.5c0,0.2,0.1,0.4,0.3,0.5    c0.2,0.1,0.4,0,0.5-0.1l7.5-7.5c0.2-0.2,0.2-0.5,0-0.7s-0.5-0.2-0.7,0L1,14.3v-1.1l7-7l7,7v1.1L9.6,8.9c-0.2-0.2-0.5-0.2-0.7,0    s-0.2,0.5,0,0.7l6.3,6.3c0.1,0.1,0.2,0.1,0.4,0.1c0.1,0,0.1,0,0.2,0c0.2-0.1,0.3-0.3,0.3-0.5V13c0-0.1-0.1-0.3-0.1-0.4L8.4,5.1z"/></g></g><g class="st0" id="duo_tone"><g class="st2"><polygon class="st20" points="0.5,15.5 0.5,13 8,5.5 15.5,13 15.5,15.5 8,8   "/><path class="st21" d="M15.9,7.6L8.4,0.1C8.2,0,7.8,0,7.6,0.1L0.1,7.6C0.1,7.7,0,7.9,0,8v2.5c0,0.2,0.1,0.4,0.3,0.5    c0.2,0.1,0.4,0,0.5-0.1L8,3.7l7.1,7.1c0.1,0.1,0.2,0.1,0.4,0.1c0.1,0,0.1,0,0.2,0c0.2-0.1,0.3-0.3,0.3-0.5V8    C16,7.9,15.9,7.7,15.9,7.6z M15,9.3L8.4,2.6C8.3,2.5,8.1,2.5,8,2.5s-0.3,0-0.4,0.1L1,9.3V8.2l7-7l7,7V9.3z"/><path class="st21" d="M8.4,5.1C8.2,5,7.8,5,7.6,5.1l-7.5,7.5C0.1,12.7,0,12.9,0,13v2.5c0,0.2,0.1,0.4,0.3,0.5    c0.2,0.1,0.4,0,0.5-0.1l7.5-7.5c0.2-0.2,0.2-0.5,0-0.7s-0.5-0.2-0.7,0L1,14.3v-1.1l7-7l7,7v1.1L9.6,8.9c-0.2-0.2-0.5-0.2-0.7,0    s-0.2,0.5,0,0.7l6.3,6.3c0.1,0.1,0.2,0.1,0.4,0.1c0.1,0,0.1,0,0.2,0c0.2-0.1,0.3-0.3,0.3-0.5V13c0-0.1-0.1-0.3-0.1-0.4L8.4,5.1z"/></g></g></svg>